<svg width="88" height="30" viewBox="0 0 88 30" fill="none" xmlns="http://www.w3.org/2000/svg">
<path d="M37.296 20.1431C36.8406 20.1431 36.6129 19.9154 36.6129 19.4599C36.6129 19.2387 36.665 19.0761 36.7691 18.972L43.1515 10.8329H37.218C36.7626 10.8329 36.5348 10.6052 36.5348 10.1498C36.5348 9.69439 36.7626 9.46668 37.218 9.46668H44.4592C44.9146 9.46668 45.1423 9.69439 45.1423 10.1498C45.1423 10.345 45.1033 10.4946 45.0252 10.5987L38.6428 18.7768H44.5373C44.9927 18.7768 45.2204 19.0045 45.2204 19.4599C45.2204 19.9154 44.9927 20.1431 44.5373 20.1431H37.296ZM51.2963 20.2407C50.2423 20.2407 49.3055 20.0129 48.4857 19.5575C47.6789 19.0891 47.0414 18.445 46.5729 17.6252C46.1175 16.8055 45.8898 15.8686 45.8898 14.8146C45.8898 13.7476 46.1045 12.8108 46.5339 12.004C46.9763 11.1843 47.5814 10.5402 48.3491 10.0717C49.1168 9.60331 50.0016 9.36909 51.0035 9.36909C51.9924 9.36909 52.8512 9.5968 53.5799 10.0522C54.3216 10.4946 54.8941 11.1127 55.2975 11.9064C55.7009 12.7002 55.9026 13.6045 55.9026 14.6195C55.9026 14.8276 55.8375 14.9968 55.7074 15.1269C55.5773 15.244 55.4081 15.3026 55.1999 15.3026H47.3146C47.3927 16.0052 47.6074 16.6298 47.9587 17.1763C48.31 17.7098 48.772 18.1327 49.3445 18.445C49.917 18.7443 50.5676 18.8939 51.2963 18.8939C51.7647 18.8939 52.2332 18.8158 52.7016 18.6597C53.183 18.4905 53.5669 18.2823 53.8532 18.0351C53.9963 17.918 54.1589 17.8595 54.3411 17.8595C54.5233 17.8464 54.6794 17.892 54.8096 17.9961C54.9787 18.1522 55.0633 18.3214 55.0633 18.5035C55.0763 18.6857 55.0047 18.8419 54.8486 18.972C54.4192 19.3363 53.8727 19.6421 53.2091 19.8893C52.5455 20.1235 51.9079 20.2407 51.2963 20.2407ZM51.0035 10.7158C50.0016 10.7158 49.1753 11.0281 48.5247 11.6527C47.8741 12.2643 47.4838 13.0645 47.3536 14.0534H54.4973C54.3932 13.0645 54.0288 12.2643 53.4042 11.6527C52.7927 11.0281 51.9924 10.7158 51.0035 10.7158ZM59.7722 20.1431C58.9914 20.1431 58.3474 19.8308 57.8399 19.2062C57.3324 18.5686 57.0787 17.7554 57.0787 16.7664V5.64114C57.0787 5.41993 57.1437 5.24427 57.2739 5.11415C57.417 4.97102 57.5992 4.89945 57.8204 4.89945C58.0416 4.89945 58.2172 4.97102 58.3474 5.11415C58.4905 5.24427 58.5621 5.41993 58.5621 5.64114V16.7664C58.5621 17.326 58.6727 17.7814 58.8939 18.1327C59.1281 18.484 59.4208 18.6597 59.7722 18.6597H60.2601C60.4553 18.6597 60.6115 18.7313 60.7286 18.8744C60.8457 19.0045 60.9042 19.1802 60.9042 19.4014C60.9042 19.6226 60.8196 19.8048 60.6505 19.9479C60.4943 20.078 60.2861 20.1431 60.0259 20.1431H59.7722ZM64.3048 20.1431C63.5241 20.1431 62.88 19.8308 62.3725 19.2062C61.865 18.5686 61.6113 17.7554 61.6113 16.7664V5.64114C61.6113 5.41993 61.6764 5.24427 61.8065 5.11415C61.9496 4.97102 62.1318 4.89945 62.353 4.89945C62.5742 4.89945 62.7498 4.97102 62.88 5.11415C63.0231 5.24427 63.0947 5.41993 63.0947 5.64114V16.7664C63.0947 17.326 63.2053 17.7814 63.4265 18.1327C63.6607 18.484 63.9535 18.6597 64.3048 18.6597H64.7927C64.9879 18.6597 65.1441 18.7313 65.2612 18.8744C65.3783 19.0045 65.4368 19.1802 65.4368 19.4014C65.4368 19.6226 65.3523 19.8048 65.1831 19.9479C65.027 20.078 64.8188 20.1431 64.5585 20.1431H64.3048ZM67.6078 20.1431C67.3735 20.1431 67.1849 20.078 67.0417 19.9479C66.9116 19.8048 66.8466 19.6161 66.8466 19.3819V10.2279C66.8466 9.99367 66.9116 9.8115 67.0417 9.68138C67.1849 9.53825 67.3735 9.46668 67.6078 9.46668C67.829 9.46668 68.0046 9.53825 68.1348 9.68138C68.2779 9.8115 68.3495 9.99367 68.3495 10.2279V19.3819C68.3495 19.6161 68.2779 19.8048 68.1348 19.9479C68.0046 20.078 67.829 20.1431 67.6078 20.1431ZM67.5882 7.4368C67.302 7.4368 67.0548 7.3327 66.8466 7.12451C66.6384 6.91632 66.5343 6.66258 66.5343 6.36331C66.5343 6.03801 66.6384 5.78427 66.8466 5.6021C67.0678 5.40692 67.3215 5.30933 67.6078 5.30933C67.881 5.30933 68.1217 5.40692 68.3299 5.6021C68.5511 5.78427 68.6617 6.03801 68.6617 6.36331C68.6617 6.66258 68.5576 6.91632 68.3495 7.12451C68.1413 7.3327 67.8875 7.4368 67.5882 7.4368ZM71.9615 20.1431C71.7273 20.1431 71.5386 20.078 71.3955 19.9479C71.2654 19.8048 71.2003 19.6226 71.2003 19.4014V10.2279C71.2003 10.0067 71.2654 9.82451 71.3955 9.68138C71.5386 9.53825 71.7273 9.46668 71.9615 9.46668C72.1827 9.46668 72.3584 9.53825 72.4885 9.68138C72.6316 9.82451 72.7032 10.0067 72.7032 10.2279V10.6573C73.0675 10.2409 73.4969 9.9221 73.9914 9.7009C74.4858 9.46668 75.0324 9.34957 75.6309 9.34957C76.3596 9.34957 77.0037 9.51222 77.5632 9.83752C78.1357 10.1628 78.5911 10.6117 78.9295 11.1843C79.2938 10.6117 79.7818 10.1628 80.3933 9.83752C81.0049 9.51222 81.688 9.34957 82.4427 9.34957C83.2104 9.34957 83.8871 9.53174 84.4726 9.89608C85.0712 10.2604 85.5331 10.7744 85.8584 11.438C86.1967 12.1016 86.3658 12.8823 86.3658 13.7802V19.4014C86.3658 19.6226 86.2943 19.8048 86.1512 19.9479C86.021 20.078 85.8454 20.1431 85.6242 20.1431C85.403 20.1431 85.2208 20.078 85.0777 19.9479C84.9345 19.8048 84.863 19.6226 84.863 19.4014V13.7802C84.863 12.8563 84.6222 12.1276 84.1408 11.5942C83.6593 11.0476 83.0413 10.7744 82.2866 10.7744C81.4798 10.7744 80.8162 11.0476 80.2957 11.5942C79.7883 12.1276 79.541 12.8433 79.554 13.7411V13.7802V19.4014C79.554 19.6226 79.4825 19.8048 79.3393 19.9479C79.2092 20.078 79.0336 20.1431 78.8124 20.1431C78.5912 20.1431 78.409 20.078 78.2658 19.9479C78.1227 19.8048 78.0511 19.6226 78.0511 19.4014V13.7802C78.0511 12.8563 77.8104 12.1276 77.329 11.5942C76.8475 11.0476 76.2295 10.7744 75.4748 10.7744C74.668 10.7744 74.0044 11.0411 73.4839 11.5746C72.9634 12.0951 72.7032 12.7782 72.7032 13.624V19.4014C72.7032 19.6226 72.6316 19.8048 72.4885 19.9479C72.3584 20.078 72.1827 20.1431 71.9615 20.1431Z" fill="white"/>
<path fill-rule="evenodd" clip-rule="evenodd" d="M21.6927 10.1934C21.5425 9.71216 21.2137 9.27755 20.7026 9.00134L15.9424 6.42868C14.7202 5.76816 13.2481 5.76515 12.0232 6.42067L9.82972 7.59455C9.38904 7.83039 9.22298 8.37882 9.45882 8.8195C9.69466 9.26018 10.2431 9.42624 10.6838 9.1904L12.8772 8.01652C13.5662 7.64779 14.3943 7.64949 15.0818 8.02103L19.842 10.5937C20.0119 10.6855 20.0207 10.9173 19.8769 11.0263L21.6927 10.1934Z" fill="#ACCDFF"/>
<path d="M12.486 22.653L7.65894 20.0564C7.05475 19.7314 6.67792 19.1008 6.67792 18.4148V12.8304C6.67792 11.9912 7.56785 11.4509 8.31242 11.8381L13.1303 14.3436C13.7472 14.6645 14.1343 15.3021 14.1343 15.9975V19.2657V21.668C14.1343 22.5141 13.2311 23.0538 12.486 22.653Z" fill="#3F91E8"/>
<path d="M13.2302 16.5474L7.97083 18.8446C7.82272 18.9093 7.81408 19.1161 7.95628 19.1929L12.9441 21.8875C13.0733 21.9573 13.2302 21.8637 13.2302 21.7169V16.5474Z" fill="#398BE0"/>
<g filter="url(#filter0_f)">
<path d="M7.56187 12.6854V13.5767C7.56187 14.8341 8.3602 15.9527 9.54924 16.3614L13.1954 17.6148V20.7837C13.5636 22.9192 11.3627 24.5767 9.41199 23.633L7.91898 22.9107C7.91898 22.9107 5.18126 21.7019 4.38955 20.1143C3.41589 18.1618 3.82831 14.5787 5.36913 13.041C6.32899 12.0831 7.56187 12.6854 7.56187 12.6854Z" fill="#41A5DE" fill-opacity="0.4"/>
</g>
<path fill-rule="evenodd" clip-rule="evenodd" d="M16.8645 1.0463C15.1333 0.151608 13.0801 0.131725 11.3319 0.992725L3.04077 5.076C2.56035 5.3126 2.36269 5.89386 2.59929 6.37429C2.8359 6.85471 3.41716 7.05236 3.89758 6.81576L12.1887 2.73249C13.3848 2.14338 14.7896 2.15699 15.9742 2.76914L25.0956 7.48298C25.5742 7.73032 25.558 8.4202 25.0684 8.64482L14.8158 13.3481C14.3035 13.5831 13.711 13.566 13.213 13.3019L7.47341 10.2578L4.61596 8.76566C2.67923 7.75432 0.360493 9.15933 0.360493 11.3442V20.1863C0.360493 22.0069 1.38046 23.674 3.00144 24.5029L11.1962 28.6933C12.9386 29.5843 15.0013 29.5915 16.7498 28.7127L25.1328 24.4996C26.7704 23.6766 27.804 22.0004 27.804 20.1676V12.8627C27.804 12.3272 27.3698 11.8931 26.8343 11.8931C26.2988 11.8931 25.8647 12.3272 25.8647 12.8627V20.1676C25.8647 21.2673 25.2445 22.273 24.262 22.7668L15.879 26.9799C14.6826 27.5812 13.2713 27.5763 12.0791 26.9667L3.88437 22.7763C2.91178 22.2789 2.2998 21.2786 2.2998 20.1863V11.3442C2.2998 10.6159 3.07271 10.1476 3.71829 10.4847L6.57024 11.974L6.57573 11.9768L12.3044 15.0152C13.3358 15.5622 14.5632 15.5976 15.6244 15.1107L25.877 10.4075C27.8356 9.509 27.9003 6.74947 25.9859 5.76014L16.8645 1.0463Z" fill="url(#paint0_linear)"/>
<path fill-rule="evenodd" clip-rule="evenodd" d="M6.0978 11.7271C5.89442 12.0385 5.77344 12.4141 5.77344 12.8303V18.4147C5.77344 19.4338 6.33322 20.3705 7.23073 20.8533L11.5883 23.1974L12.2589 23.5448C12.8979 23.8168 13.6144 23.9811 14.1372 23.9811C14.7101 23.9811 15.4239 23.805 16.0461 23.5158C16.1059 23.4901 16.345 23.363 16.4039 23.3308C16.3496 23.362 16.4604 23.3014 16.4039 23.3308L21.0556 20.7882C21.944 20.3026 22.4966 19.3708 22.4966 18.3584V15.5219C22.4966 15.0221 22.0914 14.6169 21.5916 14.6169C21.0917 14.6169 20.6866 15.0221 20.6866 15.5219V18.3584C20.6866 18.709 20.4952 19.0318 20.1875 19.1999L15.356 21.8408C15.2138 21.9185 15.0402 21.8156 15.0402 21.6535V15.9216C15.0402 15.6553 15.1504 15.4064 15.3363 15.2286C15.2129 15.2732 15.0877 15.3112 14.9613 15.3424C14.2776 15.5115 13.5589 15.4846 12.889 15.2641C13.1024 15.4441 13.2298 15.7112 13.2298 15.9973V21.6679C13.2298 21.8294 13.0574 21.9324 12.9152 21.8559L8.08819 19.2593C7.77734 19.0921 7.58346 18.7676 7.58346 18.4147V12.8303C7.58346 12.7115 7.67689 12.6241 7.78314 12.617L6.57576 11.9767L6.57026 11.9738L6.0978 11.7271Z" fill="#ACCDFF"/>
<defs>
<filter id="filter0_f" x="0.17388" y="8.80767" width="16.753" height="18.7873" filterUnits="userSpaceOnUse" color-interpolation-filters="sRGB">
<feFlood flood-opacity="0" result="BackgroundImageFix"/>
<feBlend mode="normal" in="SourceGraphic" in2="BackgroundImageFix" result="shape"/>
<feGaussianBlur stdDeviation="1.84543" result="effect1_foregroundBlur"/>
</filter>
<linearGradient id="paint0_linear" x1="3.86525" y1="27.6498" x2="18.4773" y2="12.3335" gradientUnits="userSpaceOnUse">
<stop stop-color="#3888FF"/>
<stop offset="1" stop-color="#1D72D8"/>
</linearGradient>
</defs>
</svg>
