<svg width="300" height="166" viewBox="0 0 300 166" fill="none" xmlns="http://www.w3.org/2000/svg">
<path opacity="0.1" d="M13.5002 100.416C13.4852 108.519 15.6809 116.47 19.8475 123.401C19.8475 131.877 23.7696 139.56 30.1315 145.159C31.7241 146.559 33.4385 147.811 35.2542 148.9C35.3271 148.947 35.4023 148.991 35.4777 149.035C35.6138 149.116 35.7499 149.197 35.8884 149.28L36.0172 149.356C36.598 149.686 37.1909 150.004 37.796 150.303C43.3719 153.066 49.5067 154.49 55.7202 154.465H238.726C240.184 154.465 241.629 154.407 243.061 154.289C248.151 153.885 253.152 152.718 257.899 150.827C258.826 150.458 259.735 150.062 260.626 149.637C261.05 149.436 261.471 149.23 261.887 149.018C262.147 148.886 262.407 148.748 262.665 148.611C264.228 147.774 265.742 146.847 267.199 145.835C268.531 144.916 269.813 143.926 271.039 142.868C279.308 135.718 284.424 125.825 284.424 114.908C289.059 107.717 291.517 99.3222 291.5 90.7477C291.5 66.475 272.244 46.7979 248.488 46.7979C247.759 46.7979 247.03 46.8199 246.301 46.8591C246.196 46.8591 246.094 46.8591 245.99 46.8738C241.985 39.9964 236.631 33.6773 230.194 28.1147C212.639 12.9596 186.983 3.40625 158.403 3.40625C134.389 3.40625 112.438 10.1514 95.6243 21.2961C89.253 17.6674 82.0567 15.7652 74.7379 15.7752C50.9864 15.7752 31.7257 35.4523 31.7257 59.725C31.7292 61.2608 31.8103 62.7955 31.9687 64.323C26.2433 68.4063 21.5767 73.817 18.3624 80.0987C15.1482 86.3804 13.4805 93.3488 13.5002 100.416Z" fill="#727889"/>
<path opacity="0.1" d="M278.806 45.2967C275.301 45.2967 272.459 42.7392 272.459 39.5844C272.459 36.4296 275.301 33.8721 278.806 33.8721C282.311 33.8721 285.153 36.4296 285.153 39.5844C285.153 42.7392 282.311 45.2967 278.806 45.2967Z" fill="#727889"/>
<path opacity="0.1" d="M240.724 12.2918C237.218 12.2918 234.377 9.73435 234.377 6.57952C234.377 3.42468 237.218 0.867188 240.724 0.867188C244.229 0.867188 247.071 3.42468 247.071 6.57952C247.071 9.73435 244.229 12.2918 240.724 12.2918Z" fill="#727889"/>
<path opacity="0.1" d="M256.591 37.6798C251.333 37.6798 247.071 33.4173 247.071 28.1592C247.071 22.9012 251.333 18.6387 256.591 18.6387C261.849 18.6387 266.112 22.9012 266.112 28.1592C266.112 33.4173 261.849 37.6798 256.591 37.6798Z" fill="#727889"/>
<rect x="4.375" y="152.764" width="277.5" height="3.125" rx="1.5625" fill="#4E5463"/>
<g opacity="0.7">
<path opacity="0.7" d="M35.415 140.295H24.3002L24.4537 139.045C27.5947 136.225 29.6258 128.712 29.6258 128.712C29.5807 128.718 29.5361 128.727 29.4922 128.739C27.65 129.111 26.339 129.868 25.4224 130.778L25.8124 127.453C31.6154 126.203 33.9167 118.527 33.9167 118.527C30.2138 119.349 27.9049 120.62 26.471 121.826L27.0421 116.941C30.966 118.288 35.0251 111.135 35.0251 111.135L34.8716 111.103L34.9483 111.054L34.8317 111.095C30.4947 110.161 28.1766 112.64 27.4243 113.67L27.4811 113.191C27.3665 113.498 27.255 113.799 27.1465 114.094V114.106C26.8394 114.938 26.5585 115.76 26.3036 116.571C26.0816 117.264 25.8738 117.95 25.6804 118.629V118.619C25.6804 118.619 25.5007 114.25 20.8936 113.1C20.8936 113.1 21.3772 122.629 25.0279 121.07C24.6902 122.451 24.4138 123.781 24.1743 125.072C24.0218 125.912 23.8888 126.731 23.7752 127.528L23.7537 127.553L23.7752 127.534L23.766 127.597C23.6636 128.321 23.5766 129.026 23.505 129.713C23.5756 128.389 23.3346 124.567 18.8303 120.974C18.8303 120.974 12.8431 131.497 23.0521 133.563C23.0751 133.583 23.0982 133.603 23.1197 133.621L23.1043 133.574L23.1964 133.594L23.2379 133.053C23.1148 135.309 23.1266 137.57 23.2732 139.824C23.2839 139.977 23.2947 140.131 23.3054 140.276H12.0632C7.77385 149.148 14.4458 154.01 14.4458 154.01H32.8681C40.0221 144.993 35.415 140.295 35.415 140.295Z" fill="url(#paint0_linear)"/>
</g>
<path opacity="0.6" d="M23.6737 143.663C23.6737 143.663 20.7569 130.921 27.2047 114.494" stroke="#535461" stroke-width="0.536407" stroke-miterlimit="10"/>
<path d="M12.3136 139.825H34.8809C34.8809 139.825 39.333 145.505 32.4246 153.949H14.6164C14.6164 153.949 8.16855 148.115 12.3136 139.825Z" fill="#3888FF"/>
<path d="M26.8809 115.339C26.8809 115.339 29.1239 111.347 34.497 112.576C34.497 112.576 30.0557 120.138 26.0535 117.662L26.8809 115.339Z" fill="#4DB6AC"/>
<path d="M25.4593 119.574C25.4593 119.574 25.2858 115.492 20.8337 114.417C20.8337 114.417 21.2943 123.322 24.8252 121.863L25.4593 119.574Z" fill="#4DB6AC"/>
<path d="M24.0035 125.603C24.0035 125.603 24.8248 121.326 33.4219 119.484C33.4219 119.484 30.6801 128.33 23.6074 127.975L24.0035 125.603Z" fill="#4DB6AC"/>
<path d="M23.3071 130.404C23.3071 130.404 24.2114 125.932 18.8382 121.787C18.8382 121.787 13.0044 131.715 23.0569 133.582L23.3071 130.404Z" fill="#4DB6AC"/>
<path d="M23.1457 136.551C23.1457 136.551 22.5225 130.23 29.2773 129.002C29.2773 129.002 26.8103 137.828 23.1365 139.401L23.1457 136.551Z" fill="#4DB6AC"/>
<path opacity="0.3" d="M26.1301 117.718C26.1301 117.718 31.9639 113.266 34.4202 112.499" stroke="#535461" stroke-width="0.178802" stroke-miterlimit="10"/>
<path opacity="0.3" d="M23.5972 127.927C23.5972 127.927 30.6591 120.405 33.4224 119.484" stroke="#535461" stroke-width="0.178802" stroke-miterlimit="10"/>
<path opacity="0.3" d="M20.8337 114.417C20.8337 114.417 25.1323 120.251 24.8252 121.786" stroke="#535461" stroke-width="0.178802" stroke-miterlimit="10"/>
<path opacity="0.3" d="M18.8379 121.787C18.8379 121.787 21.1407 132.226 22.9829 133.608" stroke="#535461" stroke-width="0.178802" stroke-miterlimit="10"/>
<path opacity="0.3" d="M23.1365 139.441C23.1365 139.441 26.8209 129.309 29.2773 129.002" stroke="#535461" stroke-width="0.178802" stroke-miterlimit="10"/>
<g opacity="0.1">
<path opacity="0.1" d="M34.8805 139.825H12.3132C12.2625 139.928 12.2134 140.031 12.1597 140.132H34.1129C34.1129 140.132 38.456 145.676 31.9023 153.949H32.4242C39.3326 145.505 34.8805 139.825 34.8805 139.825Z" fill="black"/>
</g>
<g opacity="0.7">
<path opacity="0.7" d="M266.306 137.172V133.511H248V150.444C248 150.913 248.093 151.377 248.272 151.81C248.451 152.243 248.714 152.637 249.046 152.968C249.377 153.3 249.771 153.563 250.204 153.742C250.637 153.922 251.101 154.014 251.57 154.014H262.737C263.683 154.014 264.591 153.638 265.261 152.968C265.93 152.299 266.306 151.391 266.306 150.444V146.691C267.567 146.689 268.775 146.187 269.666 145.294C270.556 144.402 271.056 143.193 271.056 141.932C271.056 140.671 270.556 139.462 269.666 138.57C268.775 137.677 267.567 137.175 266.306 137.172ZM266.306 144.861V139.003C267.083 139.003 267.828 139.312 268.377 139.861C268.927 140.41 269.235 141.155 269.235 141.932C269.235 142.709 268.927 143.454 268.377 144.003C267.828 144.552 267.083 144.861 266.306 144.861Z" fill="url(#paint1_linear)"/>
</g>
<path d="M265.717 137.745C264.858 137.745 264.017 138 263.303 138.477C262.588 138.955 262.031 139.634 261.702 140.428C261.373 141.222 261.287 142.096 261.455 142.939C261.623 143.782 262.036 144.556 262.644 145.164C263.252 145.771 264.026 146.185 264.869 146.353C265.712 146.521 266.586 146.435 267.38 146.106C268.174 145.777 268.853 145.22 269.33 144.505C269.808 143.79 270.063 142.95 270.063 142.091C270.063 140.938 269.605 139.833 268.79 139.018C267.975 138.203 266.87 137.745 265.717 137.745ZM265.717 144.765C265.188 144.765 264.671 144.608 264.231 144.314C263.791 144.02 263.449 143.603 263.246 143.114C263.044 142.626 262.991 142.088 263.094 141.569C263.197 141.05 263.452 140.574 263.826 140.2C264.2 139.826 264.677 139.571 265.195 139.468C265.714 139.365 266.252 139.418 266.74 139.62C267.229 139.822 267.647 140.165 267.941 140.605C268.234 141.045 268.391 141.562 268.391 142.091C268.391 142.8 268.11 143.48 267.608 143.982C267.106 144.483 266.426 144.765 265.717 144.765Z" fill="#3888FF"/>
<path opacity="0.1" d="M265.717 137.745C264.858 137.745 264.017 138 263.303 138.477C262.588 138.955 262.031 139.634 261.702 140.428C261.373 141.222 261.287 142.096 261.455 142.939C261.623 143.782 262.036 144.556 262.644 145.164C263.252 145.771 264.026 146.185 264.869 146.353C265.712 146.521 266.586 146.435 267.38 146.106C268.174 145.777 268.853 145.22 269.33 144.505C269.808 143.79 270.063 142.95 270.063 142.091C270.063 140.938 269.605 139.833 268.79 139.018C267.975 138.203 266.87 137.745 265.717 137.745ZM265.717 144.765C265.188 144.765 264.671 144.608 264.231 144.314C263.791 144.02 263.449 143.603 263.246 143.114C263.044 142.626 262.991 142.088 263.094 141.569C263.197 141.05 263.452 140.574 263.826 140.2C264.2 139.826 264.677 139.571 265.195 139.468C265.714 139.365 266.252 139.418 266.74 139.62C267.229 139.822 267.647 140.165 267.941 140.605C268.234 141.045 268.391 141.562 268.391 142.091C268.391 142.8 268.11 143.48 267.608 143.982C267.106 144.483 266.426 144.765 265.717 144.765Z" fill="black"/>
<path d="M249.003 134.402H265.717V150.945C265.717 151.522 265.488 152.076 265.079 152.484C264.671 152.893 264.117 153.122 263.54 153.122H251.18C250.603 153.122 250.049 152.893 249.641 152.484C249.232 152.076 249.003 151.522 249.003 150.945V134.402Z" fill="#3888FF"/>
<path opacity="0.1" d="M262.709 134.402V149.863C262.709 150.727 262.365 151.556 261.754 152.168C261.143 152.779 260.314 153.122 259.449 153.122H261.121C261.985 153.122 262.814 152.779 263.426 152.168C264.037 151.556 264.38 150.727 264.38 149.863V134.402H262.709Z" fill="black"/>
<path d="M252.301 121.941C252.019 121.99 251.701 122.066 251.563 122.316C251.344 122.714 251.741 123.162 252.104 123.435C252.774 123.939 253.48 124.435 253.935 125.139C254.39 125.844 254.533 126.826 254.036 127.501C253.386 128.382 251.835 128.572 251.685 129.657C251.589 130.353 252.191 130.947 252.801 131.297C254.306 132.159 256.247 132.389 257.338 133.739C257.789 132.811 258.798 132.275 259.804 132.046C260.81 131.817 261.855 131.834 262.874 131.678C263.203 131.628 263.574 131.528 263.722 131.229C264.007 130.651 263.194 129.957 263.475 129.376C263.688 128.934 264.315 128.968 264.773 128.791C265.518 128.503 265.826 127.543 265.614 126.773C265.402 126.002 264.805 125.4 264.176 124.906C262.483 123.575 260.446 122.792 258.386 122.229C257.428 121.967 256.303 121.557 255.308 121.517C254.348 121.479 253.252 121.779 252.301 121.941Z" fill="#EEEEEE"/>
<path d="M54.9236 143H230.711V146.521C230.711 150.355 227.603 153.464 223.769 153.464H61.8658C58.0317 153.464 54.9236 150.355 54.9236 146.521V143Z" fill="url(#paint2_linear)" fill-opacity="0.8"/>
<path d="M54.9236 142H230.711V145.521C230.711 149.355 227.603 152.464 223.769 152.464H61.8658C58.0317 152.464 54.9236 149.355 54.9236 145.521V142Z" fill="#F0F4F8"/>
<path d="M54.9236 142H230.711V145.521C230.711 149.355 227.603 152.464 223.769 152.464H61.8658C58.0317 152.464 54.9236 149.355 54.9236 145.521V142Z" fill="black" fill-opacity="0.1"/>
<path d="M63.5 35.5538C63.5 32.4865 65.9865 30 69.0538 30H215.946C219.014 30 221.5 32.4865 221.5 35.5538V142H63.5V35.5538Z" fill="url(#paint3_linear)" fill-opacity="0.8"/>
<mask id="path-30-inside-1" fill="white">
<path d="M64.5 36.5537C64.5 33.4865 66.9865 31 70.0538 31H214.946C218.013 31 220.5 33.4865 220.5 36.5538V142H64.5V36.5537Z"/>
</mask>
<path d="M64.5 36.5537C64.5 33.4865 66.9865 31 70.0538 31H214.946C218.013 31 220.5 33.4865 220.5 36.5538V142H64.5V36.5537Z" fill="#3F3D56" stroke="white" stroke-width="13.8844" mask="url(#path-30-inside-1)"/>
<path d="M185.287 64.563C185.287 62.0681 182.486 60.3925 179.983 61.3905L167.068 66.5405V88.0446L179.983 93.1946C182.486 94.1926 185.287 92.517 185.287 90.0221V64.563Z" fill="#1B91FA"/>
<path d="M156.584 101.585H120.869C116.207 101.585 112.41 97.4954 112.41 92.475V62.1096C112.41 57.0892 116.207 53 120.869 53H156.584C161.246 53 165.043 57.0892 165.043 62.1096V92.475C165.043 97.4954 161.246 101.585 156.584 101.585Z" fill="#60B2FC"/>
<mask id="path-33-inside-2" fill="white">
<rect x="101.67" y="73.9688" width="56.2559" height="45.0047" rx="0.965261"/>
</mask>
<rect x="101.67" y="73.9688" width="56.2559" height="45.0047" rx="0.965261" fill="#F0F4F8" stroke="#676B89" stroke-width="5.15625" mask="url(#path-33-inside-2)"/>
<path opacity="0.1" d="M122.516 84.4375H107.81V85.1997H122.516V84.4375Z" fill="#6C63FF"/>
<path opacity="0.1" d="M110.534 80.4062H109.117V84.437H110.534V80.4062Z" fill="#6C63FF"/>
<path opacity="0.1" d="M110.534 81.1699H109.117V81.6055H110.534V81.1699Z" fill="#6C63FF"/>
<path opacity="0.1" d="M110.534 83.1309H109.117V83.5664H110.534V83.1309Z" fill="#6C63FF"/>
<path opacity="0.1" d="M112.604 80.4062H111.187V84.437H112.604V80.4062Z" fill="#6C63FF"/>
<path opacity="0.1" d="M112.604 81.1699H111.187V81.6055H112.604V81.1699Z" fill="#6C63FF"/>
<path opacity="0.1" d="M112.604 83.1309H111.187V83.5664H112.604V83.1309Z" fill="#6C63FF"/>
<path opacity="0.1" d="M114.674 80.4062H113.257V84.437H114.674V80.4062Z" fill="#6C63FF"/>
<path opacity="0.1" d="M114.673 81.1699H113.257V81.6055H114.673V81.1699Z" fill="#6C63FF"/>
<path opacity="0.1" d="M114.673 83.1309H113.257V83.5664H114.673V83.1309Z" fill="#6C63FF"/>
<path opacity="0.1" d="M116.743 80.4062H115.327V84.437H116.743V80.4062Z" fill="#6C63FF"/>
<path opacity="0.1" d="M116.743 81.1699H115.327V81.6055H116.743V81.1699Z" fill="#6C63FF"/>
<path opacity="0.1" d="M116.743 83.1309H115.327V83.5664H116.743V83.1309Z" fill="#6C63FF"/>
<path opacity="0.1" d="M118.814 80.4062H117.397V84.437H118.814V80.4062Z" fill="#6C63FF"/>
<path opacity="0.1" d="M118.813 81.1699H117.397V81.6055H118.813V81.1699Z" fill="#6C63FF"/>
<path opacity="0.1" d="M118.813 83.1309H117.397V83.5664H118.813V83.1309Z" fill="#6C63FF"/>
<path opacity="0.1" d="M120.883 80.4062H119.467V84.437H120.883V80.4062Z" fill="#6C63FF"/>
<path opacity="0.1" d="M120.883 81.1699H119.467V81.6055H120.883V81.1699Z" fill="#6C63FF"/>
<path opacity="0.1" d="M120.883 83.1309H119.467V83.5664H120.883V83.1309Z" fill="#6C63FF"/>
<path opacity="0.1" d="M154.763 84.1367H140.056V84.8989H154.763V84.1367Z" fill="#6C63FF"/>
<path opacity="0.1" d="M142.78 80.1055H141.364V84.1363H142.78V80.1055Z" fill="#6C63FF"/>
<path opacity="0.1" d="M142.78 80.8682H141.364V81.3037H142.78V80.8682Z" fill="#6C63FF"/>
<path opacity="0.1" d="M142.78 82.8291H141.364V83.2647H142.78V82.8291Z" fill="#6C63FF"/>
<path opacity="0.1" d="M144.85 80.1055H143.434V84.1363H144.85V80.1055Z" fill="#6C63FF"/>
<path opacity="0.1" d="M144.85 80.8682H143.434V81.3037H144.85V80.8682Z" fill="#6C63FF"/>
<path opacity="0.1" d="M144.85 82.8291H143.434V83.2647H144.85V82.8291Z" fill="#6C63FF"/>
<path opacity="0.1" d="M146.92 80.1055H145.503V84.1363H146.92V80.1055Z" fill="#6C63FF"/>
<path opacity="0.1" d="M146.92 80.8682H145.504V81.3037H146.92V80.8682Z" fill="#6C63FF"/>
<path opacity="0.1" d="M146.92 82.8291H145.504V83.2647H146.92V82.8291Z" fill="#6C63FF"/>
<path opacity="0.1" d="M148.99 80.1055H147.573V84.1363H148.99V80.1055Z" fill="#6C63FF"/>
<path opacity="0.1" d="M148.99 80.8682H147.573V81.3037H148.99V80.8682Z" fill="#6C63FF"/>
<path opacity="0.1" d="M148.99 82.8291H147.573V83.2647H148.99V82.8291Z" fill="#6C63FF"/>
<path opacity="0.1" d="M151.06 80.1055H149.643V84.1363H151.06V80.1055Z" fill="#6C63FF"/>
<path opacity="0.1" d="M151.06 80.8682H149.643V81.3037H151.06V80.8682Z" fill="#6C63FF"/>
<path opacity="0.1" d="M151.06 82.8291H149.643V83.2647H151.06V82.8291Z" fill="#6C63FF"/>
<path opacity="0.1" d="M153.13 80.1055H151.713V84.1363H153.13V80.1055Z" fill="#6C63FF"/>
<path opacity="0.1" d="M153.129 80.8682H151.713V81.3037H153.129V80.8682Z" fill="#6C63FF"/>
<path opacity="0.1" d="M153.129 82.8291H151.713V83.2647H153.129V82.8291Z" fill="#6C63FF"/>
<path opacity="0.1" d="M154.763 91.9541H140.056V92.7163H154.763V91.9541Z" fill="#6C63FF"/>
<path opacity="0.1" d="M142.78 87.9229H141.364V91.9536H142.78V87.9229Z" fill="#6C63FF"/>
<path opacity="0.1" d="M142.78 88.6855H141.364V89.1211H142.78V88.6855Z" fill="#6C63FF"/>
<path opacity="0.1" d="M142.78 90.6465H141.364V91.082H142.78V90.6465Z" fill="#6C63FF"/>
<path opacity="0.1" d="M144.85 87.9229H143.434V91.9536H144.85V87.9229Z" fill="#6C63FF"/>
<path opacity="0.1" d="M144.85 88.6855H143.434V89.1211H144.85V88.6855Z" fill="#6C63FF"/>
<path opacity="0.1" d="M144.85 90.6465H143.434V91.082H144.85V90.6465Z" fill="#6C63FF"/>
<path opacity="0.1" d="M146.92 87.9229H145.503V91.9536H146.92V87.9229Z" fill="#6C63FF"/>
<path opacity="0.1" d="M146.92 88.6855H145.504V89.1211H146.92V88.6855Z" fill="#6C63FF"/>
<path opacity="0.1" d="M146.92 90.6465H145.504V91.082H146.92V90.6465Z" fill="#6C63FF"/>
<path opacity="0.1" d="M148.99 87.9229H147.573V91.9536H148.99V87.9229Z" fill="#6C63FF"/>
<path opacity="0.1" d="M148.99 88.6855H147.573V89.1211H148.99V88.6855Z" fill="#6C63FF"/>
<path opacity="0.1" d="M148.99 90.6465H147.573V91.082H148.99V90.6465Z" fill="#6C63FF"/>
<path opacity="0.1" d="M151.06 87.9229H149.643V91.9536H151.06V87.9229Z" fill="#6C63FF"/>
<path opacity="0.1" d="M151.06 88.6855H149.643V89.1211H151.06V88.6855Z" fill="#6C63FF"/>
<path opacity="0.1" d="M151.06 90.6465H149.643V91.082H151.06V90.6465Z" fill="#6C63FF"/>
<path opacity="0.1" d="M153.13 87.9229H151.713V91.9536H153.13V87.9229Z" fill="#6C63FF"/>
<path opacity="0.1" d="M153.129 88.6855H151.713V89.1211H153.129V88.6855Z" fill="#6C63FF"/>
<path opacity="0.1" d="M153.129 90.6465H151.713V91.082H153.129V90.6465Z" fill="#6C63FF"/>
<path opacity="0.1" d="M116.83 97.5815C116.72 97.4414 116.619 97.2939 116.53 97.1401L118.647 96.7928L116.353 96.8115C116.133 96.3334 116.014 95.8156 116.001 95.2897C115.988 94.7638 116.083 94.2408 116.279 93.7528L119.352 95.3469L116.519 93.2643C116.783 92.8045 117.14 92.4042 117.566 92.0884C117.993 91.7726 118.48 91.5481 118.997 91.4288C119.513 91.3096 120.049 91.2982 120.571 91.3954C121.093 91.4925 121.589 91.6962 122.028 91.9936C122.467 92.291 122.841 92.6758 123.125 93.1239C123.409 93.572 123.597 94.0739 123.678 94.5982C123.76 95.1224 123.732 95.6579 123.597 96.171C123.463 96.6841 123.224 97.1639 122.895 97.5805C123.067 97.7981 123.216 98.0335 123.337 98.2829L120.591 99.7102L123.521 98.7292C123.727 99.3373 123.778 99.9872 123.669 100.62C123.561 101.253 123.296 101.848 122.899 102.353C123.347 102.922 123.626 103.606 123.703 104.326C123.781 105.047 123.654 105.774 123.338 106.426C123.021 107.078 122.528 107.627 121.914 108.012C121.3 108.396 120.59 108.6 119.865 108.6C119.141 108.6 118.431 108.396 117.817 108.012C117.203 107.627 116.709 107.078 116.393 106.426C116.076 105.774 115.95 105.047 116.027 104.326C116.105 103.606 116.384 102.922 116.832 102.353C116.297 101.673 116.006 100.832 116.006 99.9667C116.006 99.1012 116.297 98.2608 116.832 97.5805L116.83 97.5815Z" fill="#6C63FF"/>
<path opacity="0.1" d="M123.723 99.9681C123.724 100.834 123.433 101.674 122.897 102.354C123.345 102.923 123.624 103.607 123.701 104.327C123.779 105.048 123.652 105.775 123.336 106.427C123.019 107.079 122.526 107.628 121.912 108.013C121.298 108.397 120.588 108.601 119.863 108.601C119.139 108.601 118.429 108.397 117.815 108.013C117.201 107.628 116.707 107.079 116.391 106.427C116.074 105.775 115.948 105.048 116.025 104.327C116.103 103.607 116.382 102.923 116.83 102.354C116.313 101.698 123.723 99.5345 123.723 99.9681Z" fill="#6C63FF"/>
<path opacity="0.2" d="M120.483 109.628C120.49 109.639 120.495 109.65 120.501 109.66H119.191C119.198 109.65 119.203 109.639 119.21 109.628C119.097 109.432 119.039 109.209 119.041 108.983C119.041 108.828 119.068 108.674 119.12 108.528C119.193 108.54 119.283 108.553 119.387 108.564C119.691 108.594 119.997 108.594 120.301 108.564C120.388 108.555 120.479 108.542 120.571 108.528C120.571 108.531 120.571 108.533 120.571 108.535C120.623 108.679 120.649 108.83 120.649 108.983C120.652 109.209 120.594 109.431 120.483 109.628Z" fill="#3F3D56"/>
<path opacity="0.1" d="M115.773 109.662H108.485C108.468 109.62 108.453 109.576 108.441 109.533C108.184 108.706 108.214 107.817 108.526 107.01C107.814 106.518 107.288 105.801 107.032 104.973C106.777 104.146 106.807 103.257 107.117 102.449C106.971 102.348 106.831 102.236 106.699 102.116L108.62 101.158L106.438 101.851C106.086 101.459 105.819 100.999 105.651 100.5C105.484 100.001 105.42 99.4736 105.464 98.9491L108.87 99.5642L105.549 98.4106C105.666 97.8932 105.889 97.4055 106.203 96.9781C106.518 96.5507 106.917 96.1926 107.376 95.9263C107.834 95.66 108.343 95.4911 108.87 95.4303C109.397 95.3694 109.931 95.4178 110.439 95.5726C110.946 95.7273 111.417 95.985 111.82 96.3295C112.223 96.6741 112.552 97.0981 112.784 97.5751C113.016 98.0521 113.147 98.5719 113.17 99.102C113.192 99.6321 113.105 100.161 112.914 100.656C113.142 100.814 113.353 100.996 113.543 101.198L111.337 103.374L113.848 101.569C114.224 102.09 114.464 102.696 114.547 103.333C114.63 103.97 114.553 104.617 114.323 105.217C115.017 105.697 115.536 106.392 115.798 107.195C116.06 107.998 116.051 108.865 115.773 109.662Z" fill="#6C63FF"/>
<path opacity="0.1" d="M115.773 109.662H108.485C108.468 109.62 108.453 109.576 108.441 109.533C108.184 108.706 108.214 107.817 108.526 107.01C107.839 106.534 114.28 102.281 114.412 102.694C114.668 103.521 114.638 104.41 114.326 105.218C115.02 105.699 115.538 106.394 115.799 107.196C116.06 107.999 116.051 108.865 115.773 109.662Z" fill="#6C63FF"/>
<path opacity="0.1" d="M148.778 104.432C148.335 105.176 147.654 105.748 146.845 106.056C146.88 106.332 146.885 106.611 146.862 106.887L143.77 106.702L146.789 107.362C146.59 108.285 146.06 109.102 145.299 109.661H141.091V109.77H136.807C136.816 109.733 136.825 109.697 136.835 109.661C136.992 109.07 137.287 108.524 137.697 108.068C138.106 107.613 138.617 107.261 139.189 107.041C139.079 106.182 139.262 105.312 139.706 104.569C140.151 103.826 140.833 103.254 141.641 102.945C141.618 102.768 141.607 102.59 141.609 102.412L143.605 103.197L141.632 102.037C141.688 101.515 141.85 101.009 142.108 100.552C142.367 100.094 142.715 99.6936 143.133 99.3751L144.952 102.318L143.59 99.0808C144.332 98.6679 145.19 98.5115 146.03 98.6358C146.87 98.76 147.646 99.158 148.237 99.7681C148.828 100.378 149.201 101.166 149.299 102.01C149.396 102.854 149.213 103.706 148.777 104.435L148.778 104.432Z" fill="#6C63FF"/>
<path opacity="0.1" d="M146.328 108.529C146.066 108.972 145.716 109.357 145.299 109.662H141.091V109.77H136.807C136.816 109.733 136.825 109.697 136.835 109.662C136.992 109.07 137.287 108.524 137.697 108.068C138.106 107.613 138.617 107.261 139.189 107.041C139.153 106.76 139.984 106.798 141.092 106.984C143.257 107.347 146.476 108.282 146.328 108.529Z" fill="#6C63FF"/>
<path d="M128.09 98.23C128.09 98.23 128.615 101.091 127.438 102.024C126.261 102.957 128.432 108.556 132.04 107.903C135.648 107.251 137.11 102.553 137.11 102.553C137.11 102.553 133.502 101.808 134.839 98.0132L128.09 98.23Z" fill="#EFB7B9"/>
<path opacity="0.1" d="M128.09 98.23C128.09 98.23 128.615 101.091 127.438 102.024C126.261 102.957 128.432 108.556 132.04 107.903C135.648 107.251 137.11 102.553 137.11 102.553C137.11 102.553 133.502 101.808 134.839 98.0132L128.09 98.23Z" fill="black"/>
<path d="M131.279 100.329C134.576 100.329 137.25 97.6556 137.25 94.3579C137.25 91.0601 134.576 88.3867 131.279 88.3867C127.981 88.3867 125.307 91.0601 125.307 94.3579C125.307 97.6556 127.981 100.329 131.279 100.329Z" fill="#EFB7B9"/>
<path d="M141.091 105.71V109.769H121.374V105.895C121.374 105.404 121.519 104.924 121.79 104.514C122.061 104.104 122.447 103.784 122.9 103.592L123.466 103.352C124.896 102.743 126.633 101.986 127.201 101.671C127.264 101.64 127.322 101.602 127.376 101.559C127.687 101.248 127.625 101.652 127.625 101.652C127.625 101.652 127.616 101.728 127.611 101.862C127.577 102.775 127.709 106.367 131.917 106.068C136.023 105.774 136.204 103.003 136.166 102.188C136.164 102.113 136.158 102.037 136.147 101.963C136.147 101.941 136.5 102.061 136.979 102.233C137.839 102.55 139.103 103.06 139.444 103.301C139.55 103.374 139.678 103.453 139.818 103.53C140.205 103.747 140.528 104.063 140.752 104.446C140.977 104.83 141.094 105.266 141.093 105.71H141.091Z" fill="#9D7CDC"/>
<path opacity="0.1" d="M136.978 102.233C136.631 103.844 135.54 106.862 131.605 106.942C127.415 107.024 127.174 102.857 127.2 101.675C127.262 101.644 127.321 101.606 127.375 101.561C127.686 101.25 127.624 101.655 127.624 101.655C127.624 101.655 127.096 106.413 131.916 106.069C136.736 105.725 136.146 101.964 136.146 101.964C136.146 101.941 136.499 102.057 136.978 102.233Z" fill="black"/>
<path d="M124.211 94.6535C124.603 94.526 125.071 94.7418 125.29 95.0459C125.508 95.35 125.539 95.7178 125.565 96.07C125.825 96.1249 125.971 95.8306 125.995 95.6099C126.093 94.7065 126.098 93.7863 126.401 92.9152C126.704 92.0441 127.366 91.2005 128.385 90.865C128.731 90.7449 129.101 90.7095 129.464 90.762C129.678 90.7983 129.881 90.8728 130.096 90.9082C130.839 91.0308 131.648 90.6786 132.346 90.9239C132.782 91.0779 133.064 91.434 133.264 91.791C133.353 91.9827 133.474 92.1581 133.621 92.31C133.915 92.5748 134.382 92.6445 134.806 92.7278C135.23 92.8112 135.695 92.9545 135.876 93.2821C136.04 93.5764 135.919 93.9197 135.864 94.2415C135.78 94.7484 135.866 95.2689 136.107 95.7227C136.185 95.8718 136.344 96.0406 136.531 95.9925C136.617 95.9637 136.689 95.9052 136.734 95.8277C137.225 95.141 137.209 94.2503 137.82 93.6372C138.025 93.4322 138.289 93.2713 138.488 93.0624C138.639 92.9102 138.75 92.7229 138.81 92.5175C138.871 92.312 138.879 92.0947 138.835 91.8852C138.725 91.4134 138.344 91.02 138.043 90.6099C137.647 90.0845 137.359 89.4861 137.195 88.8491C137.166 88.7753 137.166 88.6933 137.195 88.6196C137.252 88.5445 137.326 88.4837 137.411 88.442C137.578 88.3316 137.698 88.1643 137.75 87.9714C137.802 87.7785 137.782 87.5733 137.693 87.3943C137.522 87.0383 137.139 86.7744 136.718 86.6155C136.297 86.4565 135.835 86.3889 135.378 86.3212C135.078 86.3653 134.725 86.1936 134.632 85.9533C134.591 85.8464 134.591 85.7306 134.549 85.6237C134.467 85.4187 134.233 85.2735 133.981 85.2235C133.724 85.1814 133.462 85.1999 133.214 85.2774C132.931 85.3569 132.604 85.4736 132.357 85.3382C132.228 85.2647 132.155 85.1313 132.016 85.0714C131.734 84.9508 131.435 85.194 131.231 85.3951C131.033 85.6046 130.791 85.7672 130.522 85.8709C130.239 85.969 129.889 85.969 129.645 85.813C129.449 85.6884 129.351 85.4883 129.195 85.3294C128.939 85.0675 128.534 84.9253 128.129 84.8929C127.724 84.8716 127.318 84.916 126.927 85.0243C126.18 85.2053 125.466 85.5032 124.813 85.9072C124.486 86.1122 124.173 86.3516 124.003 86.6606C123.881 86.9015 123.819 87.1678 123.82 87.4375C123.79 88.2821 124.07 89.1728 124.801 89.7644C124.356 89.9507 124.205 90.4069 124.101 90.812C123.934 91.4575 123.766 92.1147 123.829 92.774C123.86 93.1144 123.953 93.4547 123.903 93.7932C123.88 93.957 123.823 94.1179 123.837 94.2837C123.855 94.3756 123.9 94.46 123.967 94.5259C124.034 94.5918 124.118 94.6363 124.211 94.6535Z" fill="#454B69"/>
<path d="M101.67 109.768H157.926V118.008C157.926 118.541 157.494 118.974 156.961 118.974H102.635C102.102 118.974 101.67 118.541 101.67 118.008V109.768Z" fill="#676B89"/>
<rect opacity="0.5" x="104.739" y="111.813" width="11.2512" height="5.11417" rx="0.965261" fill="#AFB8CB"/>
<rect opacity="0.5" x="142.585" y="112.082" width="5.36135" height="5.11417" rx="0.965261" fill="#AFB8CB"/>
<rect opacity="0.5" x="149.957" y="112.082" width="5.36135" height="5.11417" rx="0.965261" fill="#AFB8CB"/>
<defs>
<linearGradient id="paint0_linear" x1="3475.62" y1="22318.5" x2="7964.37" y2="22318.5" gradientUnits="userSpaceOnUse">
<stop stop-color="#808080" stop-opacity="0.25"/>
<stop offset="0.54" stop-color="#808080" stop-opacity="0.12"/>
<stop offset="1" stop-color="#808080" stop-opacity="0.1"/>
</linearGradient>
<linearGradient id="paint1_linear" x1="259.533" y1="154.014" x2="259.533" y2="133.511" gradientUnits="userSpaceOnUse">
<stop stop-color="#808080" stop-opacity="0.25"/>
<stop offset="0.53514" stop-color="#808080" stop-opacity="0.12"/>
<stop offset="1" stop-color="#808080" stop-opacity="0.1"/>
</linearGradient>
<linearGradient id="paint2_linear" x1="142.817" y1="153.464" x2="142.817" y2="143" gradientUnits="userSpaceOnUse">
<stop stop-color="#808080" stop-opacity="0.25"/>
<stop offset="0.54" stop-color="#808080" stop-opacity="0.12"/>
<stop offset="1" stop-color="#808080" stop-opacity="0.1"/>
</linearGradient>
<linearGradient id="paint3_linear" x1="142.5" y1="142" x2="142.5" y2="30" gradientUnits="userSpaceOnUse">
<stop stop-color="#808080" stop-opacity="0.25"/>
<stop offset="0.54" stop-color="#808080" stop-opacity="0.12"/>
<stop offset="1" stop-color="#808080" stop-opacity="0.1"/>
</linearGradient>
</defs>
</svg>
